<?xml version="1.0" encoding="UTF-8" standalone="no"?>
<!DOCTYPE svg PUBLIC "-//W3C//DTD SVG 1.1//EN"
 "http://www.w3.org/Graphics/SVG/1.1/DTD/svg11.dtd">
<!-- Generated by graphviz version 5.0.0 (20220707.1540)
 -->
<!-- Title: dependencies Pages: 1 -->
<svg width="310pt" height="174pt"
 viewBox="0.00 0.00 310.00 173.80" xmlns="http://www.w3.org/2000/svg" xmlns:xlink="http://www.w3.org/1999/xlink">
<g id="graph0" class="graph" transform="scale(1 1) rotate(0) translate(4 169.8)">
<title>dependencies</title>
<polygon fill="white" stroke="transparent" points="-4,4 -4,-169.8 306,-169.8 306,4 -4,4"/>
<text text-anchor="middle" x="151" y="-8.2" font-family="sans-serif" font-size="14.00">dependencies</text>
<g id="clust1" class="cluster">
<title>cluster_PostsModule</title>
<polygon fill="none" stroke="black" stroke-dasharray="1,5" points="8,-32.8 8,-157.8 294,-157.8 294,-32.8 8,-32.8"/>
</g>
<g id="clust3" class="cluster">
<title>cluster_PostsModule_imports</title>
<polygon fill="none" stroke="black" points="160,-40.8 160,-92.8 286,-92.8 286,-40.8 160,-40.8"/>
</g>
<g id="clust6" class="cluster">
<title>cluster_PostsModule_providers</title>
<polygon fill="none" stroke="black" points="16,-40.8 16,-92.8 152,-92.8 152,-40.8 16,-40.8"/>
</g>
<!-- DatabaseModule -->
<g id="node1" class="node">
<title>DatabaseModule</title>
<polygon fill="#8dd3c7" stroke="black" points="278.36,-84.8 275.36,-88.8 254.36,-88.8 251.36,-84.8 167.64,-84.8 167.64,-48.8 278.36,-48.8 278.36,-84.8"/>
<text text-anchor="middle" x="223" y="-62.6" font-family="Times,serif" font-size="14.00">DatabaseModule</text>
</g>
<!-- PostsModule -->
<g id="node2" class="node">
<title>PostsModule</title>
<polygon fill="#8dd3c7" stroke="black" points="197.62,-149.8 194.62,-153.8 173.62,-153.8 170.62,-149.8 108.38,-149.8 108.38,-113.8 197.62,-113.8 197.62,-149.8"/>
<text text-anchor="middle" x="153" y="-127.6" font-family="Times,serif" font-size="14.00">PostsModule</text>
</g>
<!-- DatabaseModule&#45;&gt;PostsModule -->
<g id="edge1" class="edge">
<title>DatabaseModule&#45;&gt;PostsModule</title>
<path fill="none" stroke="black" d="M182.57,-84.91C182.57,-84.91 182.57,-103.79 182.57,-103.79"/>
<polygon fill="black" stroke="black" points="179.07,-103.79 182.57,-113.79 186.07,-103.79 179.07,-103.79"/>
</g>
<!-- PostsService -->
<g id="node3" class="node">
<title>PostsService</title>
<ellipse fill="#fdb462" stroke="black" cx="84" cy="-66.8" rx="60.28" ry="18"/>
<text text-anchor="middle" x="84" y="-62.6" font-family="Times,serif" font-size="14.00">PostsService</text>
</g>
<!-- PostsService&#45;&gt;PostsModule -->
<g id="edge2" class="edge">
<title>PostsService&#45;&gt;PostsModule</title>
<path fill="none" stroke="black" d="M126.41,-79.64C126.41,-79.64 126.41,-103.32 126.41,-103.32"/>
<polygon fill="black" stroke="black" points="122.91,-103.32 126.41,-113.32 129.91,-103.32 122.91,-103.32"/>
</g>
</g>
</svg>
