<?xml version="1.0" encoding="UTF-8" standalone="no"?>
<!DOCTYPE svg PUBLIC "-//W3C//DTD SVG 1.1//EN"
 "http://www.w3.org/Graphics/SVG/1.1/DTD/svg11.dtd">
<!-- Generated by graphviz version 5.0.0 (20220707.1540)
 -->
<!-- Title: dependencies Pages: 1 -->
<svg width="335pt" height="250pt"
 viewBox="0.00 0.00 335.00 249.80" xmlns="http://www.w3.org/2000/svg" xmlns:xlink="http://www.w3.org/1999/xlink">
<g id="graph0" class="graph" transform="scale(1 1) rotate(0) translate(4 245.8)">
<title>dependencies</title>
<polygon fill="white" stroke="transparent" points="-4,4 -4,-245.8 331,-245.8 331,4 -4,4"/>
<text text-anchor="middle" x="163.5" y="-8.2" font-family="sans-serif" font-size="14.00">dependencies</text>
<g id="clust1" class="cluster">
<title>cluster_AppModule</title>
<polygon fill="none" stroke="black" stroke-dasharray="1,5" points="8,-108.8 8,-233.8 270,-233.8 270,-108.8 8,-108.8"/>
</g>
<g id="clust3" class="cluster">
<title>cluster_AppModule_imports</title>
<polygon fill="none" stroke="black" points="154,-116.8 154,-168.8 262,-168.8 262,-116.8 154,-116.8"/>
</g>
<g id="clust6" class="cluster">
<title>cluster_AppModule_providers</title>
<polygon fill="none" stroke="black" points="16,-116.8 16,-168.8 146,-168.8 146,-116.8 16,-116.8"/>
</g>
<g id="clust13" class="cluster">
<title>cluster_UsersModule</title>
<polygon fill="none" stroke="black" stroke-dasharray="1,5" points="29,-32.8 29,-100.8 319,-100.8 319,-32.8 29,-32.8"/>
</g>
<g id="clust15" class="cluster">
<title>cluster_UsersModule_imports</title>
<polygon fill="none" stroke="black" points="185,-40.8 185,-92.8 311,-92.8 311,-40.8 185,-40.8"/>
</g>
<g id="clust18" class="cluster">
<title>cluster_UsersModule_providers</title>
<polygon fill="none" stroke="black" points="37,-40.8 37,-92.8 177,-92.8 177,-40.8 37,-40.8"/>
</g>
<!-- UsersModule -->
<g id="node1" class="node">
<title>UsersModule</title>
<polygon fill="#8dd3c7" stroke="black" points="253.94,-160.8 250.94,-164.8 229.94,-164.8 226.94,-160.8 162.06,-160.8 162.06,-124.8 253.94,-124.8 253.94,-160.8"/>
<text text-anchor="middle" x="208" y="-138.6" font-family="Times,serif" font-size="14.00">UsersModule</text>
</g>
<!-- AppModule -->
<g id="node2" class="node">
<title>AppModule</title>
<polygon fill="#8dd3c7" stroke="black" points="185.66,-225.8 182.66,-229.8 161.66,-229.8 158.66,-225.8 102.34,-225.8 102.34,-189.8 185.66,-189.8 185.66,-225.8"/>
<text text-anchor="middle" x="144" y="-203.6" font-family="Times,serif" font-size="14.00">AppModule</text>
</g>
<!-- UsersModule&#45;&gt;AppModule -->
<g id="edge1" class="edge">
<title>UsersModule&#45;&gt;AppModule</title>
<path fill="none" stroke="black" d="M174.06,-160.91C174.06,-160.91 174.06,-179.79 174.06,-179.79"/>
<polygon fill="black" stroke="black" points="170.56,-179.79 174.06,-189.79 177.56,-179.79 170.56,-179.79"/>
</g>
<!-- AppService -->
<g id="node3" class="node">
<title>AppService</title>
<ellipse fill="#fdb462" stroke="black" cx="81" cy="-142.8" rx="56.75" ry="18"/>
<text text-anchor="middle" x="81" y="-138.6" font-family="Times,serif" font-size="14.00">AppService</text>
</g>
<!-- AppService&#45;&gt;AppModule -->
<g id="edge2" class="edge">
<title>AppService&#45;&gt;AppModule</title>
<path fill="none" stroke="black" d="M119.9,-155.95C119.9,-155.95 119.9,-179.49 119.9,-179.49"/>
<polygon fill="black" stroke="black" points="116.4,-179.49 119.9,-189.49 123.4,-179.49 116.4,-179.49"/>
</g>
<!-- DatabaseModule -->
<g id="node4" class="node">
<title>DatabaseModule</title>
<polygon fill="#8dd3c7" stroke="black" points="303.36,-84.8 300.36,-88.8 279.36,-88.8 276.36,-84.8 192.64,-84.8 192.64,-48.8 303.36,-48.8 303.36,-84.8"/>
<text text-anchor="middle" x="248" y="-62.6" font-family="Times,serif" font-size="14.00">DatabaseModule</text>
</g>
<!-- DatabaseModule&#45;&gt;UsersModule -->
<g id="edge3" class="edge">
<title>DatabaseModule&#45;&gt;UsersModule</title>
<path fill="none" stroke="black" d="M223.14,-84.81C223.14,-84.81 223.14,-114.65 223.14,-114.65"/>
<polygon fill="black" stroke="black" points="219.64,-114.65 223.14,-124.65 226.64,-114.65 219.64,-114.65"/>
</g>
<!-- UsersService -->
<g id="node5" class="node">
<title>UsersService</title>
<ellipse fill="#fdb462" stroke="black" cx="107" cy="-66.8" rx="61.97" ry="18"/>
<text text-anchor="middle" x="107" y="-62.6" font-family="Times,serif" font-size="14.00">UsersService</text>
</g>
<!-- UsersService&#45;&gt;UsersModule -->
<g id="edge4" class="edge">
<title>UsersService&#45;&gt;UsersModule</title>
<path fill="none" stroke="black" d="M169.25,-66.8C176.17,-66.8 180.78,-66.8 180.78,-66.8 180.78,-66.8 180.78,-114.79 180.78,-114.79"/>
<polygon fill="black" stroke="black" points="177.28,-114.79 180.78,-124.79 184.28,-114.79 177.28,-114.79"/>
</g>
</g>
</svg>
