<?xml version="1.0" encoding="UTF-8" standalone="no"?>
<!DOCTYPE svg PUBLIC "-//W3C//DTD SVG 1.1//EN"
 "http://www.w3.org/Graphics/SVG/1.1/DTD/svg11.dtd">
<!-- Generated by graphviz version 5.0.0 (20220707.1540)
 -->
<!-- Title: dependencies Pages: 1 -->
<svg width="489pt" height="250pt"
 viewBox="0.00 0.00 489.00 249.80" xmlns="http://www.w3.org/2000/svg" xmlns:xlink="http://www.w3.org/1999/xlink">
<g id="graph0" class="graph" transform="scale(1 1) rotate(0) translate(4 245.8)">
<title>dependencies</title>
<polygon fill="white" stroke="transparent" points="-4,4 -4,-245.8 485,-245.8 485,4 -4,4"/>
<text text-anchor="middle" x="240.5" y="-8.2" font-family="sans-serif" font-size="14.00">dependencies</text>
<g id="clust1" class="cluster">
<title>cluster_AppModule</title>
<polygon fill="none" stroke="black" stroke-dasharray="1,5" points="8,-108.8 8,-233.8 377,-233.8 377,-108.8 8,-108.8"/>
</g>
<g id="clust3" class="cluster">
<title>cluster_AppModule_imports</title>
<polygon fill="none" stroke="black" points="154,-116.8 154,-168.8 369,-168.8 369,-116.8 154,-116.8"/>
</g>
<g id="clust6" class="cluster">
<title>cluster_AppModule_providers</title>
<polygon fill="none" stroke="black" points="16,-116.8 16,-168.8 146,-168.8 146,-116.8 16,-116.8"/>
</g>
<g id="clust13" class="cluster">
<title>cluster_PostsModule</title>
<polygon fill="none" stroke="black" stroke-dasharray="1,5" points="23,-32.8 23,-100.8 309,-100.8 309,-32.8 23,-32.8"/>
</g>
<g id="clust15" class="cluster">
<title>cluster_PostsModule_imports</title>
<polygon fill="none" stroke="black" points="175,-40.8 175,-92.8 301,-92.8 301,-40.8 175,-40.8"/>
</g>
<g id="clust18" class="cluster">
<title>cluster_PostsModule_providers</title>
<polygon fill="none" stroke="black" points="31,-40.8 31,-92.8 167,-92.8 167,-40.8 31,-40.8"/>
</g>
<g id="clust19" class="cluster">
<title>cluster_UsersModule</title>
<polygon fill="none" stroke="black" stroke-dasharray="1,5" points="317,-32.8 317,-100.8 473,-100.8 473,-32.8 317,-32.8"/>
</g>
<g id="clust24" class="cluster">
<title>cluster_UsersModule_providers</title>
<polygon fill="none" stroke="black" points="325,-40.8 325,-92.8 465,-92.8 465,-40.8 325,-40.8"/>
</g>
<!-- PostsModule -->
<g id="node1" class="node">
<title>PostsModule</title>
<polygon fill="#8dd3c7" stroke="black" points="251.62,-160.8 248.62,-164.8 227.62,-164.8 224.62,-160.8 162.38,-160.8 162.38,-124.8 251.62,-124.8 251.62,-160.8"/>
<text text-anchor="middle" x="207" y="-138.6" font-family="Times,serif" font-size="14.00">PostsModule</text>
</g>
<!-- AppModule -->
<g id="node3" class="node">
<title>AppModule</title>
<polygon fill="#8dd3c7" stroke="black" points="248.66,-225.8 245.66,-229.8 224.66,-229.8 221.66,-225.8 165.34,-225.8 165.34,-189.8 248.66,-189.8 248.66,-225.8"/>
<text text-anchor="middle" x="207" y="-203.6" font-family="Times,serif" font-size="14.00">AppModule</text>
</g>
<!-- PostsModule&#45;&gt;AppModule -->
<g id="edge1" class="edge">
<title>PostsModule&#45;&gt;AppModule</title>
<path fill="none" stroke="black" d="M207,-160.91C207,-160.91 207,-179.79 207,-179.79"/>
<polygon fill="black" stroke="black" points="203.5,-179.79 207,-189.79 210.5,-179.79 203.5,-179.79"/>
</g>
<!-- UsersModule -->
<g id="node2" class="node">
<title>UsersModule</title>
<polygon fill="#8dd3c7" stroke="black" points="360.94,-160.8 357.94,-164.8 336.94,-164.8 333.94,-160.8 269.06,-160.8 269.06,-124.8 360.94,-124.8 360.94,-160.8"/>
<text text-anchor="middle" x="315" y="-138.6" font-family="Times,serif" font-size="14.00">UsersModule</text>
</g>
<!-- UsersModule&#45;&gt;AppModule -->
<g id="edge2" class="edge">
<title>UsersModule&#45;&gt;AppModule</title>
<path fill="none" stroke="black" d="M315,-160.91C315,-180.14 315,-207.8 315,-207.8 315,-207.8 258.76,-207.8 258.76,-207.8"/>
<polygon fill="black" stroke="black" points="258.76,-204.3 248.76,-207.8 258.76,-211.3 258.76,-204.3"/>
</g>
<!-- AppService -->
<g id="node4" class="node">
<title>AppService</title>
<ellipse fill="#fdb462" stroke="black" cx="81" cy="-142.8" rx="56.75" ry="18"/>
<text text-anchor="middle" x="81" y="-138.6" font-family="Times,serif" font-size="14.00">AppService</text>
</g>
<!-- AppService&#45;&gt;AppModule -->
<g id="edge3" class="edge">
<title>AppService&#45;&gt;AppModule</title>
<path fill="none" stroke="black" d="M81,-160.91C81,-180.14 81,-207.8 81,-207.8 81,-207.8 155.04,-207.8 155.04,-207.8"/>
<polygon fill="black" stroke="black" points="155.04,-211.3 165.04,-207.8 155.04,-204.3 155.04,-211.3"/>
</g>
<!-- DatabaseModule -->
<g id="node5" class="node">
<title>DatabaseModule</title>
<polygon fill="#8dd3c7" stroke="black" points="293.36,-84.8 290.36,-88.8 269.36,-88.8 266.36,-84.8 182.64,-84.8 182.64,-48.8 293.36,-48.8 293.36,-84.8"/>
<text text-anchor="middle" x="238" y="-62.6" font-family="Times,serif" font-size="14.00">DatabaseModule</text>
</g>
<!-- DatabaseModule&#45;&gt;PostsModule -->
<g id="edge4" class="edge">
<title>DatabaseModule&#45;&gt;PostsModule</title>
<path fill="none" stroke="black" d="M217.07,-84.81C217.07,-84.81 217.07,-114.65 217.07,-114.65"/>
<polygon fill="black" stroke="black" points="213.57,-114.65 217.07,-124.65 220.57,-114.65 213.57,-114.65"/>
</g>
<!-- DatabaseModule&#45;&gt;UsersModule -->
<g id="edge6" class="edge">
<title>DatabaseModule&#45;&gt;UsersModule</title>
<path fill="none" stroke="black" d="M281.36,-84.81C281.36,-84.81 281.36,-114.65 281.36,-114.65"/>
<polygon fill="black" stroke="black" points="277.86,-114.65 281.36,-124.65 284.86,-114.65 277.86,-114.65"/>
</g>
<!-- PostsService -->
<g id="node6" class="node">
<title>PostsService</title>
<ellipse fill="#fdb462" stroke="black" cx="99" cy="-66.8" rx="60.28" ry="18"/>
<text text-anchor="middle" x="99" y="-62.6" font-family="Times,serif" font-size="14.00">PostsService</text>
</g>
<!-- PostsService&#45;&gt;PostsModule -->
<g id="edge5" class="edge">
<title>PostsService&#45;&gt;PostsModule</title>
<path fill="none" stroke="black" d="M159.7,-66.8C167.32,-66.8 172.51,-66.8 172.51,-66.8 172.51,-66.8 172.51,-114.79 172.51,-114.79"/>
<polygon fill="black" stroke="black" points="169.01,-114.79 172.51,-124.79 176.01,-114.79 169.01,-114.79"/>
</g>
<!-- UsersService -->
<g id="node7" class="node">
<title>UsersService</title>
<ellipse fill="#fdb462" stroke="black" cx="395" cy="-66.8" rx="61.97" ry="18"/>
<text text-anchor="middle" x="395" y="-62.6" font-family="Times,serif" font-size="14.00">UsersService</text>
</g>
<!-- UsersService&#45;&gt;UsersModule -->
<g id="edge7" class="edge">
<title>UsersService&#45;&gt;UsersModule</title>
<path fill="none" stroke="black" d="M346.87,-78.34C346.87,-78.34 346.87,-114.63 346.87,-114.63"/>
<polygon fill="black" stroke="black" points="343.37,-114.63 346.87,-124.63 350.37,-114.63 343.37,-114.63"/>
</g>
</g>
</svg>
